General
Unique ID                   : 265008044350694926315955308122177970099 (0xC75EB15C1E0FC11E0D5F9411DE429FB3)
Complete name               : the GazettE - PLEDGE [WEB-DL 1080p AAC x264-SEKAI].mkv
Format                      : Matroska
Format version              : Version 4
File size                   : 449 MiB
Duration                    : 6 min 12 s
Overall bit rate            : 10.1 Mb/s
Frame rate                  : 29.970 FPS
Movie name                  : the GazettE - PLEDGE [WEB-DL 1080p AAC x264-SEKAI]
Encoded date                : 2025-07-19 13:59:13 UTC
Writing application         : mkvmerge v93.0 ('Goblu') 64-bit
Writing library             : libebml v1.4.5 + libmatroska v1.7.1
Website                     : https://sekai-archivist.blogspot.com/

Video
ID                          : 1
Format                      : AVC
Format/Info                 : Advanced Video Codec
Format profile              : High@L4
Format settings             : CABAC / 4 Ref Frames
Format settings, CABAC      : Yes
Format settings, Reference  : 4 frames
Format settings, Slice coun : 8 slices per frame
Codec ID                    : V_MPEG4/ISO/AVC
Duration                    : 6 min 12 s
Bit rate                    : 9 845 kb/s
Width                       : 1 916 pixels
Height                      : 1 080 pixels
Display aspect ratio        : 16:9
Frame rate mode             : Constant
Frame rate                  : 29.970 (30000/1001) FPS
Color space                 : YUV
Chroma subsampling          : 4:2:0 (Type 2)
Bit depth                   : 8 bits
Scan type                   : Progressive
Bits/(Pixel*Frame)          : 0.159
Stream size                 : 437 MiB (97%)
Language                    : Japanese
Default                     : Yes
Forced                      : No
Color range                 : Limited
Color primaries             : BT.709
Transfer characteristics    : BT.709
Matrix coefficients         : BT.709

Audio
ID                          : 2
Format                      : AAC LC
Format/Info                 : Advanced Audio Codec Low Complexity
Codec ID                    : A_AAC-2
Duration                    : 6 min 12 s
Bit rate                    : 288 kb/s
Channel(s)                  : 2 channels
Channel layout              : L R
Sampling rate               : 48.0 kHz
Frame rate                  : 46.875 FPS (1024 SPF)
Compression mode            : Lossy
Stream size                 : 12.6 MiB (3%)
Language                    : Japanese
Default                     : Yes
Forced                      : No

